<?xml version="1.0" encoding="utf-8"?>
<svg id="visual" viewBox="0 0 960 340.2" width="960" height="340.2" xmlns="http://www.w3.org/2000/svg" xmlns:xlink="http://www.w3.org/1999/xlink" version="1.1">
  <path d="M0 205L32 223C64 241 128 277 192 285C256 293 320 273 384 261.8C448 250.7 512 248.3 576 268.7C640 289 704 332 768 331.2C832 330.3 896 285.7 928 263.3L960 241L960 0L928 0C896 0 832 0 768 0C704 0 640 0 576 0C512 0 448 0 384 0C320 0 256 0 192 0C128 0 64 0 32 0L0 0Z" fill="#FFA384" stroke-linecap="round" stroke-linejoin="miter"></path>
</svg>